Coordinates
version=1
nRows=21
nColumns=12
inDegrees=yes

Units are S.I. units (second, meters, Newtons, ...)
Angles are in degrees

endheader
time	SC_y	SC_z	SC_x	AC_y	AC_z	AC_x	GH_y	GH_z	GH_yy	EL_x	PS_y
       0.0               -34.4          32.95           56.9           40.6          5.318          13.54         -125.9          61.19         -85.66          73.98          89.69
   0.02462              -34.39          32.95          56.89           40.6          5.314          13.53         -125.9           61.2         -85.66          73.99          89.69
   0.04925              -34.39          32.94          56.88          40.61          5.311          13.53         -125.9           61.2         -85.66          73.99          89.69
   0.07387              -34.39          32.94          56.88          40.61          5.307          13.53         -125.9           61.2         -85.66           74.0          89.69
    0.0985              -34.39          32.93          56.87          40.61          5.302          13.52         -125.8          61.21         -85.67          74.01           89.7
    0.1231              -34.38          32.93          56.86          40.62          5.298          13.52         -125.8          61.21         -85.67          74.02           89.7
    0.1477              -34.38          32.92          56.85          40.62          5.293          13.52         -125.8          61.22         -85.67          74.02           89.7
    0.1724              -34.38          32.92          56.84          40.63          5.288          13.51         -125.8          61.22         -85.68          74.03           89.7
     0.197              -34.37          32.91          56.83          40.63          5.282          13.51         -125.7          61.23         -85.68          74.04           89.7
    0.2216              -34.37          32.91          56.81          40.64          5.276           13.5         -125.7          61.24         -85.68          74.05           89.7
    0.2462              -34.37           32.9           56.8          40.64           5.27           13.5         -125.7          61.24         -85.69          74.07           89.7
    0.2709              -34.36          32.89          56.78          40.65          5.263          13.49         -125.6          61.25         -85.69          74.08          89.71
    0.2955              -34.36          32.88          56.77          40.65          5.255          13.49         -125.6          61.26         -85.69          74.09          89.71
    0.3201              -34.35          32.88          56.75          40.66          5.247          13.48         -125.6          61.27          -85.7           74.1          89.71
    0.3447              -34.35          32.87          56.73          40.67          5.238          13.47         -125.5          61.27          -85.7          74.12          89.71
    0.3694              -34.34          32.86          56.71          40.67          5.229          13.46         -125.5          61.28         -85.71          74.14          89.72
     0.394              -34.34          32.84          56.69          40.68          5.219          13.46         -125.4           61.3         -85.72          74.15          89.72
    0.4186              -34.33          32.83          56.67          40.69          5.207          13.45         -125.3          61.31         -85.72          74.17          89.72
    0.4432              -34.32          32.82          56.64           40.7          5.195          13.44         -125.3          61.32         -85.73           74.2          89.73
    0.4679              -34.32          32.81          56.61          40.71          5.182          13.43         -125.2          61.33         -85.74          74.22          89.73
    0.4925              -34.31          32.79          56.58          40.73          5.167          13.41         -125.1          61.35         -85.75          74.25          89.73
